<svg xmlns="http://www.w3.org/2000/svg" viewBox="0 0 394.43 443.94"><title>logo</title><path d="M440.92,493.25l160.57-94.82a33.92,33.92,0,0,0,16.67-29.2V286L334.52,453.47l67,39.75A38.68,38.68,0,0,0,440.92,493.25Z" transform="translate(-223.73 -54.69)" fill="#49c0b8"/><path d="M462.82,200.7,572.22,137l31.15,19.81a31.9,31.9,0,0,1,14.79,26.92v28.2L551,251.59Z" transform="translate(-223.73 -54.69)" fill="#49c0b8"/><path d="M239.92,398.26l31.51,19.08,2.15-2.15,192.18-113-88-50.6-154,90.58v27.35A33.61,33.61,0,0,0,239.92,398.26Z" transform="translate(-223.73 -54.69)" fill="#49c0b8"/><polygon points="198.95 347.31 134.95 310.36 47.59 362.08 111.59 399.03 198.95 347.31" fill="#2b3990"/><polygon points="153.33 196.9 91.35 160.91 3 212.21 62.66 250.06 153.33 196.9" fill="#2b3990"/><path d="M225.89,182.85l1.26,84.53L510.92,99.8,445.31,61.05a45.81,45.81,0,0,0-46.57,0L242.43,153.36A33.66,33.66,0,0,0,225.89,182.85Z" transform="translate(-223.73 -54.69)" fill="#49c0b8"/></svg>